<?xml version="1.0" encoding="UTF-8" standalone="no"?>
<!-- Created with Inkscape (http://www.inkscape.org/) -->

<svg
   xmlns:dc="http://purl.org/dc/elements/1.1/"
   xmlns:cc="http://creativecommons.org/ns#"
   xmlns:rdf="http://www.w3.org/1999/02/22-rdf-syntax-ns#"
   xmlns:svg="http://www.w3.org/2000/svg"
   xmlns="http://www.w3.org/2000/svg"
   xmlns:sodipodi="http://sodipodi.sourceforge.net/DTD/sodipodi-0.dtd"
   xmlns:inkscape="http://www.inkscape.org/namespaces/inkscape"
   width="140mm"
   height="15mm"
   viewBox="0 0 140 15"
   version="1.1"
   id="svg8"
   inkscape:version="0.92.4 (5da689c313, 2019-01-14)"
   sodipodi:docname="hitdic2-automated-saved.svg">
  <defs
     id="defs2" />
  <sodipodi:namedview
     id="base"
     pagecolor="#ffffff"
     bordercolor="#666666"
     borderopacity="1.0"
     inkscape:pageopacity="0.0"
     inkscape:pageshadow="2"
     inkscape:zoom="0.7"
     inkscape:cx="9.2200578"
     inkscape:cy="-80.031924"
     inkscape:document-units="mm"
     inkscape:current-layer="text4749-0"
     showgrid="false"
     inkscape:window-width="1920"
     inkscape:window-height="1001"
     inkscape:window-x="-9"
     inkscape:window-y="-9"
     inkscape:window-maximized="1" />
  <metadata
     id="metadata5">
    <rdf:RDF>
      <cc:Work
         rdf:about="">
        <dc:format>image/svg+xml</dc:format>
        <dc:type
           rdf:resource="http://purl.org/dc/dcmitype/StillImage" />
        <dc:title></dc:title>
      </cc:Work>
    </rdf:RDF>
  </metadata>
  <g
     inkscape:label="Layer 1"
     inkscape:groupmode="layer"
     id="layer1"
     transform="translate(0,-282)">
    <g
       aria-label="HitDIC 2 "
       style="font-style:normal;font-variant:normal;font-weight:normal;font-stretch:normal;font-size:12.69999981px;line-height:1.25;font-family:'Times New Roman';-inkscape-font-specification:'Times New Roman, ';letter-spacing:0px;word-spacing:0px;fill:#000000;fill-opacity:1;stroke:none;stroke-width:0.26458332"
       id="text4749-0">
      <path
         d="m 17.236696,290.58585 q 0,0.2032 -0.2921,0.2921 -0.2286,0.0762 -0.5588,0.1016 -0.3175,0.0127 -0.4191,0.0127 -0.0127,0.3937 -0.0508,0.8763 -0.0381,0.4826 -0.0635,0.8001 l -0.0381,0.3937 -0.0254,0.4064 -0.0762,0.9779 q -0.0508,0.6477 -0.4191,0.6477 -0.1397,0 -0.2794,-0.3302 -0.127,-0.3175 -0.127,-0.5207 0,-0.0508 0.1016,-0.2032 0.1016,-0.1524 0.127,-0.381 0.0508,-0.3556 0.1143,-1.1811 0.0635,-0.8255 0.0889,-1.3843 -0.4953,0.0381 -1.0668,0.1143 -0.254,0.0254 -1.143,0.1143 -0.889,0.0889 -1.397,0.1143 -0.0508,0.8382 -0.1143,2.0447 -0.0635,1.2065 -0.0635,1.4732 0,0.1016 0.0254,0.2667 0.0381,0.1651 0.0381,0.254 0,0.1143 -0.1778,0.2286 -0.1651,0.1143 -0.2667,0.1143 -0.127,0 -0.2159,-0.1651 -0.0762,-0.1651 -0.0762,-0.381 0,-0.1143 0.0254,-0.381 0.0254,-0.254 0.0381,-0.4445 0.0508,-0.3429 0.0635,-0.5588 0.0635,-0.7493 0.1016,-1.4478 0.0381,-0.6985 0.0508,-0.9398 -0.8001,0.1397 -1.5112999,0.1397 -0.2413,0 -0.4064,-0.1143 -0.1778,-0.127 -0.1778,-0.3556 0,-0.1651 0.0889,-0.2413 0.0762,-0.0889 0.3302,-0.0889 l 0.6730999,0.0127 q 0.6604,0.0254 1.0668,0.0254 0.0635,-1.0795 0.0635,-1.7272 0,-1.4732 -0.0254,-2.6416 v -0.4699 q 0,-0.1905 0.1397,-0.3048 0.1524,-0.127 0.3429,-0.127 0.1397,0 0.1905,0.2159 0.0508,0.2159 0.0508,0.4826 0,0.2794 -0.0635,1.143 -0.0762,1.4732 -0.0762,1.5621 l -0.0635,1.8161 q 1.0668,-0.0254 3.6195,-0.3302 0.0508,-0.3683 0.1778,-1.9304 0.0508,-0.8255 0.0889,-1.2065 l 0.0762,-0.9906 q 0.1651,-1.8669 0.1651,-2.3368 0,-0.1651 0.127,-0.2667 0.127,-0.1016 0.2921,-0.1016 0.2286,0 0.2286,0.4445 0,0.2794 -0.127,1.4859 -0.1397,1.5748 -0.1524,1.7526 -0.0762,0.9779 -0.1524,1.8669 -0.0635,0.889 -0.0889,1.1938 0.2286,-0.0381 0.4064,-0.1143 0.2286,-0.0762 0.3556,-0.0762 0.127,0 0.2921,0.1524 0.1651,0.1524 0.1651,0.2159 z"
         style="font-style:normal;font-variant:normal;font-weight:normal;font-stretch:normal;font-size:12.69999981px;font-family:'Ink Free';-inkscape-font-specification:'Ink Free, Normal';font-variant-ligatures:normal;font-variant-caps:normal;font-variant-numeric:normal;font-feature-settings:normal;text-align:start;writing-mode:lr-tb;text-anchor:start;fill:#ff0066"
         id="path4969"
         inkscape:connector-curvature="0" />
      <path
         d="m 19.441337,286.09005 q 0,0.1905 -0.4191,0.1905 -0.2159,0 -0.4445,-0.1778 -0.2159,-0.1778 -0.2159,-0.2921 0,-0.1397 0.127,-0.2667 0.1397,-0.127 0.2794,-0.127 0,0 0.0889,0.0381 0.1016,0.0254 0.2286,0.1651 0.1016,0.1016 0.2286,0.2667 0.127,0.1651 0.127,0.2032 z m 0.3175,7.9883 q 0,0.127 -0.1143,0.1905 -0.1016,0.0762 -0.2413,0.0635 -0.1778,-0.0127 -0.2667,-0.5715 -0.0762,-0.5588 -0.1651,-2.1209 -0.0508,-1.0287 -0.0889,-2.0066 -0.0381,-0.9906 -0.0508,-1.524 0,-0.1397 0.0381,-0.2032 0.0508,-0.0762 0.1778,-0.0762 0.2921,0 0.3683,0.2413 0.0762,0.2413 0.0762,0.9271 l -0.0127,1.4986 q 0,1.2827 0.0762,2.0574 0,0.0381 0.1143,0.8128 0.0889,0.5334 0.0889,0.7112 z"
         style="font-style:normal;font-variant:normal;font-weight:normal;font-stretch:normal;font-size:12.69999981px;font-family:'Ink Free';-inkscape-font-specification:'Ink Free, Normal';font-variant-ligatures:normal;font-variant-caps:normal;font-variant-numeric:normal;font-feature-settings:normal;text-align:start;writing-mode:lr-tb;text-anchor:start;fill:#28b028;fill-opacity:1"
         id="path4971"
         inkscape:connector-curvature="0" />
      <path
         d="m 27.007361,288.78245 q 0,0.2159 -0.1905,0.3302 -0.1778,0.1143 -0.6604,0.1778 -1.1684,0.2032 -1.3081,0.2286 l -0.8255,0.1397 q 0,0.6604 0.0127,1.3843 0.0254,0.7239 0.0635,1.27 0.0508,0.7366 0.1778,1.1303 0.127,0.3937 0.1397,0.4445 0,0.127 -0.1651,0.2286 -0.1524,0.1143 -0.2921,0.1143 -0.0762,0 -0.127,-0.0508 -0.0508,-0.0381 -0.0889,-0.1397 -0.0762,-0.1778 -0.1524,-0.6604 -0.0635,-0.4826 -0.1016,-1.0668 -0.0381,-0.5207 -0.0635,-1.2065 -0.0127,-0.6985 -0.0127,-1.3462 -0.7112,0.1143 -1.4605,0.2794 -0.673099,0.1397 -0.800099,0.1397 -0.1524,0 -0.2921,-0.0889 -0.127,-0.0889 -0.127,-0.2413 0,-0.1651 0.1143,-0.2159 0.1143,-0.0508 0.381,-0.0508 0.1905,0 0.558799,-0.0635 0.3683,-0.0762 0.4699,-0.1016 0.8509,-0.1651 1.1557,-0.2159 0,-0.2667 -0.0254,-0.6985 -0.0254,-0.5842 -0.0254,-0.889 0,-0.4953 0.0254,-0.762 0.0381,-0.2794 0.127,-0.4953 0.1016,-0.254 0.381,-0.254 0.1143,0 0.1524,0.0381 0.0381,0.0381 0.0381,0.1397 0,0.0762 -0.0635,0.4445 -0.0635,0.3683 -0.0635,0.9779 0,0.4699 0.0254,1.0541 l 0.0127,0.3429 q 0.5715,-0.0889 2.2606,-0.4699 0.1016,-0.0254 0.1651,-0.1778 0.0762,-0.1524 0.1524,-0.1524 0.1397,0 0.2794,0.1651 0.1524,0.1524 0.1524,0.3175 z"
         style="font-style:normal;font-variant:normal;font-weight:normal;font-stretch:normal;font-size:12.69999981px;font-family:'Ink Free';-inkscape-font-specification:'Ink Free, Normal';font-variant-ligatures:normal;font-variant-caps:normal;font-variant-numeric:normal;font-feature-settings:normal;text-align:start;writing-mode:lr-tb;text-anchor:start;fill:#808080"
         id="path4973"
         inkscape:connector-curvature="0" />
      <path
         d="m 34.997448,288.13475 q 0,0.9906 -0.5715,1.8796 -0.5715,0.889 -1.8542,2.0193 -0.7747,0.6858 -1.6002,1.2954 -0.8128,0.6096 -1.3589,0.8636 -0.0381,0.1397 -0.1143,0.2032 -0.0762,0.0762 -0.2286,0.0762 -0.1143,0 -0.1651,-0.0508 -0.0508,-0.0381 -0.0508,-0.1524 0,-0.0762 0.0508,-0.635 0.0635,-0.5588 0.0635,-1.3081 0,-1.27 -0.0381,-2.2987 -0.0254,-1.1938 -0.0254,-1.6764 0,-0.7493 0.1524,-1.2319 0.1143,-0.3048 0.4064,-0.3048 0.1016,0 0.1778,0.0381 0.0889,0.0381 0.0889,0.1143 -0.0127,0.0635 -0.1397,0.4445 -0.1143,0.381 -0.1143,0.7239 0,0.9525 0.0381,2.0828 0.0254,1.4478 0.0254,2.0066 0,0.9525 -0.0127,1.143 0.4572,-0.1778 1.2319,-0.7366 0.7874,-0.5588 1.3208,-1.016 1.1049,-0.9906 1.6129,-1.778 0.508,-0.7874 0.508,-1.6383 0,-1.0287 -1.2954,-1.4097 -1.2827,-0.381 -3.3655,-0.381 -0.635,0 -1.7018,0.1524 -0.2032,0.0127 -0.635,0.127 -0.1905,0.0635 -0.2667,0.0635 -0.1016,0 -0.1905,-0.1651 -0.1016,-0.1651 -0.1016,-0.3302 0,-0.0635 0.0889,-0.1143 0.0889,-0.0635 0.2794,-0.0889 0.762,-0.1016 1.2954,-0.1524 0.5461,-0.0508 1.27,-0.0508 2.3114,0 3.7592,0.5207 1.4605,0.5207 1.4605,1.7653 z"
         style="font-style:normal;font-variant:normal;font-weight:normal;font-stretch:normal;font-size:12.69999981px;font-family:'Ink Free';-inkscape-font-specification:'Ink Free, Normal';font-variant-ligatures:normal;font-variant-caps:normal;font-variant-numeric:normal;font-feature-settings:normal;text-align:start;writing-mode:lr-tb;text-anchor:start;fill:#808080"
         id="path4975"
         inkscape:connector-curvature="0" />
      <path
         d="m 43.129218,285.93765 q 0,0.2413 -0.2413,0.3429 -0.2413,0.1016 -0.7112,0.1905 -0.5207,0.1016 -1.3208,0.2032 -0.8001,0.0889 -1.2954,0.1143 -0.0381,0.5461 -0.1016,3.1496 -0.0635,2.6035 -0.0762,3.8481 0.6858,-0.0127 1.8034,-0.0889 0.9398,-0.0508 1.0541,-0.0508 0.2286,0 0.4064,0.1016 0.1905,0.1016 0.1905,0.3175 0,0.1778 -0.0635,0.254 -0.0508,0.0762 -0.2413,0.0762 -0.0762,0 -0.4191,-0.0381 -0.254,-0.0508 -0.4318,-0.0508 -0.5969,0 -2.3876,0.0762 -0.0635,0.0889 -0.1524,0.127 -0.0762,0.0508 -0.1397,0.0508 -0.0762,0 -0.1524,-0.0381 -0.0762,-0.0381 -0.0889,-0.1143 l -0.5715,0.0635 q -0.9906,0.127 -1.4732,0.127 -0.4191,0 -0.635,-0.1778 -0.1143,-0.1016 -0.1143,-0.3683 0,-0.0762 0.0762,-0.1905 0.0889,-0.1143 0.1778,-0.1143 0.0254,0 0.1905,0.0762 0.1778,0.0635 0.3302,0.0635 0.4699,0 1.3843,-0.0508 l 0.5842,-0.0381 0.0762,-1.8669 q 0.0127,-0.2921 0.0254,-0.5207 0.0127,-0.2413 0.0127,-0.4064 l 0.127,-4.1529 q -1.3208,0.0889 -1.2573,0.0889 -1.2954,0.1016 -1.524,0.1016 -0.2159,0 -0.4064,-0.1397 -0.1905,-0.1397 -0.1905,-0.3556 0,-0.1524 0.0762,-0.2413 0.0889,-0.0889 0.2286,-0.0889 0.1016,0 0.2032,0.0127 0.1016,0.0127 0.2032,0.0254 0.3175,0.0635 0.6096,0.0635 0.2794,0 1.0668,-0.0381 0.7874,-0.0508 1.0541,-0.0635 0.0127,-0.1651 0.1143,-0.2667 0.1016,-0.1143 0.2667,-0.1143 0.0762,0 0.127,0.1016 0.0508,0.1016 0.0508,0.2286 0.7366,-0.0254 2.6543,-0.3302 0.1524,-0.0254 0.3302,-0.1397 0.1905,-0.1143 0.2159,-0.1143 0.127,0 0.2413,0.1016 0.1143,0.1016 0.1143,0.254 z"
         style="font-style:normal;font-variant:normal;font-weight:normal;font-stretch:normal;font-size:12.69999981px;font-family:'Ink Free';-inkscape-font-specification:'Ink Free, Normal';font-variant-ligatures:normal;font-variant-caps:normal;font-variant-numeric:normal;font-feature-settings:normal;text-align:start;writing-mode:lr-tb;text-anchor:start;fill:#808080"
         id="path4977"
         inkscape:connector-curvature="0" />
      <path
         d="m 51.030005,291.76695 q 0,0.127 -0.2286,0.4572 -0.5334,0.7239 -1.4351,1.4097 -0.9017,0.6731 -1.9812,0.6731 -1.143,0 -1.8669,-0.6477 -0.7239,-0.6604 -0.7239,-1.9431 0,-0.8763 0.3048,-1.9812 0.3048,-1.1049 0.7112,-1.9177 0.4191,-0.8255 0.9652,-1.3716 0.5588,-0.5461 1.1176,-0.5461 0.5461,0 0.8382,0.3937 0.3048,0.3937 0.3048,0.9779 0,0.2159 -0.0889,0.4445 -0.0762,0.2159 -0.1778,0.3683 -0.1016,0.1524 -0.1524,0.1524 -0.1016,0 -0.1016,-0.1143 0,-0.0381 0.0381,-0.1651 0.0508,-0.1397 0.0508,-0.2286 0,-0.3175 -0.0762,-0.5969 -0.0635,-0.2413 -0.254,-0.3937 -0.1905,-0.1651 -0.4191,-0.1651 -0.9144,0 -1.7145,1.7653 -0.3175,0.7112 -0.5334,1.6002 -0.2159,0.889 -0.2159,1.7145 0,0.5715 0.2286,1.0414 0.2413,0.4699 0.6731,0.7493 0.4445,0.2794 1.0287,0.2794 0.9271,0 1.6764,-0.4445 0.762,-0.4445 1.4986,-1.143 0.0254,-0.0254 0.1778,-0.2794 0.1524,-0.2667 0.2286,-0.2667 0.0762,0 0.1016,0.0381 0.0254,0.0381 0.0254,0.1397 z"
         style="font-style:normal;font-variant:normal;font-weight:normal;font-stretch:normal;font-size:12.69999981px;font-family:'Ink Free';-inkscape-font-specification:'Ink Free, Normal';font-variant-ligatures:normal;font-variant-caps:normal;font-variant-numeric:normal;font-feature-settings:normal;text-align:start;writing-mode:lr-tb;text-anchor:start;fill:#808080"
         id="path4979"
         inkscape:connector-curvature="0" />
      <path
         d="m 62.954514,293.88785 q 0,0.1651 -0.1651,0.2794 -0.1524,0.127 -0.4191,0.1905 -0.4699,0.0508 -1.524,0.2032 -0.9144,0.1397 -1.2446,0.1778 l -1.0033,0.1524 q -0.8001,0.127 -1.3081,0.1778 -0.4953,0.0635 -1.0922,0.0635 -0.2159,0 -0.4064,-0.1524 -0.1778,-0.1524 -0.1778,-0.4318 0,-0.1524 0.0508,-0.2413 0.0508,-0.0889 0.1651,-0.2159 0.7366,-0.7366 1.2573,-1.3208 0.5334,-0.5842 1.3081,-1.5113 0.7874,-0.9525 1.1684,-1.6256 0.3937,-0.6731 0.3937,-1.397 0,-0.6604 -0.3937,-1.016 -0.381,-0.3683 -1.0033,-0.3683 -0.4699,0 -0.8255,0.1397 -0.3556,0.127 -0.9906,0.4953 -0.1524,0.0762 -0.3302,0.2286 -0.1778,0.1397 -0.2286,0.1778 -0.1778,0.1524 -0.3556,0.2667 -0.1651,0.1143 -0.254,0.1143 -0.3048,0 -0.3048,-0.3429 0,-0.2921 0.3302,-0.5207 0.0762,-0.0508 0.5461,-0.3175 0.2794,-0.1397 0.4445,-0.2413 0.5842,-0.3302 1.016,-0.4699 0.4445,-0.1397 1.0541,-0.1397 0.8763,0 1.4097,0.5461 0.5461,0.5461 0.5461,1.3843 0,0.635 -0.2921,1.2827 -0.2794,0.635 -0.635,1.1176 -0.3556,0.4826 -0.8509,1.0668 -0.2667,0.3175 -1.3462,1.4859 l -0.6604,0.7239 q -0.0381,0.0381 -0.2159,0.2159 -0.1651,0.1905 -0.1651,0.2667 0,0.1524 0.3048,0.1524 0.4064,0 1.0668,-0.1143 0.6731,-0.1143 0.8001,-0.1397 l 1.1049,-0.1905 q 0.254,-0.0381 1.2573,-0.1651 0.889,-0.1143 1.1049,-0.1651 0.1651,-0.1016 0.3556,-0.1905 0.1905,-0.1016 0.254,-0.1016 0.254,0 0.254,0.4699 z"
         style="font-style:normal;font-variant:normal;font-weight:normal;font-stretch:normal;font-size:12.69999981px;font-family:'Ink Free';-inkscape-font-specification:'Ink Free, Normal';font-variant-ligatures:normal;font-variant-caps:normal;font-variant-numeric:normal;font-feature-settings:normal;text-align:start;writing-mode:lr-tb;text-anchor:start;fill:#808080"
         id="path4981"
         inkscape:connector-curvature="0" />
    </g>
    <g
       aria-label="Automated"
       style="font-style:normal;font-variant:normal;font-weight:normal;font-stretch:normal;font-size:12.69999981px;line-height:1.25;font-family:'Times New Roman';-inkscape-font-specification:'Times New Roman, ';letter-spacing:0px;word-spacing:0px;fill:#000000;fill-opacity:1;stroke:none;stroke-width:0.26458332"
       id="text4749-7-7">
      <path
         d="m 78.576149,290.05927 q 0,0.0889 -0.0508,0.1905 -0.0381,0.1016 -0.1143,0.1524 -0.0889,0.0762 -0.3683,0.1397 -0.2794,0.0508 -0.381,0.0635 0.1016,0.4826 0.1016,0.4699 0.0889,0.3175 0.1905,0.8763 0.2286,1.2827 0.4699,2.1844 0.0635,0.2921 0.0635,0.3429 0,0.127 -0.1016,0.2159 -0.1016,0.0889 -0.2413,0.0889 -0.127,0 -0.2286,-0.1397 -0.1016,-0.127 -0.1397,-0.2286 -0.1143,-0.4318 -0.2159,-0.9652 -0.0889,-0.5334 -0.2159,-1.2827 -0.0508,-0.3302 -0.1651,-0.8128 -0.1143,-0.4953 -0.1524,-0.6477 -0.7493,0.1016 -2.5781,0.4064 l -0.7366,0.127 -0.2667,0.7493 -0.3556,1.016 q -0.4445,1.3843 -0.635,2.1336 -0.0381,0.1778 -0.1524,0.2921 -0.1143,0.127 -0.2794,0.127 -0.1397,0 -0.2413,-0.0762 -0.0889,-0.0762 -0.0889,-0.2159 0,-0.1397 0.1524,-0.5969 0.1524,-0.4445 0.1778,-0.5334 0.0508,-0.127 0.2032,-0.5842 0.1651,-0.4953 0.4191,-1.1938 0.2667,-0.7112 0.3556,-0.9398 -0.6477,0.1524 -0.9652,0.2413 -0.4826,0.127 -0.5969,0.127 -0.1397,0 -0.2159,-0.1016 -0.0635,-0.1143 -0.0635,-0.2413 0,-0.1524 0.0762,-0.2032 0.0762,-0.0635 0.254,-0.1143 0.4826,-0.1143 1.016,-0.2286 0.5461,-0.1143 0.7493,-0.1524 0.127,-0.3683 0.1905,-0.6223 0.0508,-0.1651 0.127,-0.4064 0.0889,-0.254 0.1905,-0.6223 l 0.1905,-0.6477 q 0.4826,-1.7018 0.5588,-1.9431 0.0635,-0.1778 0.1143,-0.2794 0.0635,-0.1016 0.1651,-0.1016 0.254,0 0.4572,0.0762 0.0254,-0.0254 0.0762,-0.1016 0.0635,-0.0889 0.127,-0.1143 0.0762,-0.0381 0.1905,-0.0381 0.2286,0 0.5207,0.5207 0.3048,0.5207 0.5842,1.2319 0.1651,0.4191 0.4191,1.2573 0.254,0.8255 0.3302,1.0922 0.1905,-0.0254 0.3175,-0.0635 0.1397,-0.0508 0.1778,-0.0635 0.0635,-0.0254 0.1397,-0.0889 0.0762,-0.0635 0.1397,-0.0889 0.0635,-0.0381 0.1397,0 0.1651,0.0762 0.1651,0.3175 z m -1.6637,0.0889 q -0.0635,-0.2286 -0.2667,-0.9525 -0.2032,-0.7366 -0.381,-1.1938 -0.1778,-0.4699 -0.4572,-0.9652 -0.2794,-0.4953 -0.4699,-0.6223 l -0.1397,0.3302 q -0.2413,0.4826 -0.3683,0.8763 -0.3048,0.9144 -0.9652,3.0226 l 1.4859,-0.254 1.2192,-0.1905 z"
         style="font-style:normal;font-variant:normal;font-weight:normal;font-stretch:normal;font-size:12.69999981px;font-family:'Ink Free';-inkscape-font-specification:'Ink Free, Normal';font-variant-ligatures:normal;font-variant-caps:normal;font-variant-numeric:normal;font-feature-settings:normal;text-align:start;writing-mode:lr-tb;text-anchor:start;fill:#28b028;fill-opacity:1"
         id="path4950"
         inkscape:connector-curvature="0" />
      <path
         d="m 84.96544,293.80577 q 0,0.2032 -0.1143,0.3175 -0.1143,0.1143 -0.3175,0.1143 -0.254,0 -0.4699,-0.5334 -0.2032,-0.5334 -0.254,-1.1049 -0.0508,-0.5461 -0.0762,-2.2098 -0.0127,-0.2667 -0.0127,-0.5334 0,-0.2794 -0.0127,-0.4699 -0.3683,0.8763 -1.0033,1.9939 -0.635,1.1176 -1.2827,1.9177 -0.635,0.8001 -1.0414,0.8001 -0.4191,0 -0.5588,-0.4445 -0.127,-0.4445 -0.127,-1.4097 0,-0.9017 0.2286,-2.0447 0.2413,-1.143 0.5461,-1.7399 0.127,-0.2667 0.2159,-0.3556 0.0889,-0.1016 0.2032,-0.1016 0.3175,0 0.3175,0.127 0,0.0635 -0.127,0.2921 -0.3429,0.635 -0.5969,1.524 -0.254,0.889 -0.254,2.3876 0,1.0033 0.2794,1.0033 0.3302,0 0.889,-0.7239 0.5715,-0.7366 1.1303,-1.7526 0.5588,-1.016 0.8509,-1.7653 0.1016,-0.254 0.2286,-0.7874 0.0381,-0.2159 0.0762,-0.3048 0.0381,-0.1016 0.0889,-0.1016 0.1397,0 0.3048,0.1143 0.1651,0.1143 0.1651,0.2413 0,0.6096 0.0381,2.0955 0.0508,1.4732 0.1143,2.0447 0.0508,0.4953 0.1778,0.7747 0.1397,0.2794 0.2667,0.4445 0.127,0.1524 0.127,0.1905 z"
         style="font-style:normal;font-variant:normal;font-weight:normal;font-stretch:normal;font-size:12.69999981px;font-family:'Ink Free';-inkscape-font-specification:'Ink Free, Normal';font-variant-ligatures:normal;font-variant-caps:normal;font-variant-numeric:normal;font-feature-settings:normal;text-align:start;writing-mode:lr-tb;text-anchor:start;fill:#ff0066"
         id="path4952"
         inkscape:connector-curvature="0" />
      <path
         d="m 91.620834,288.76387 q 0,0.2159 -0.1905,0.3302 -0.1778,0.1143 -0.6604,0.1778 -1.1684,0.2032 -1.3081,0.2286 l -0.8255,0.1397 q 0,0.6604 0.0127,1.3843 0.0254,0.7239 0.0635,1.27 0.0508,0.7366 0.1778,1.1303 0.127,0.3937 0.1397,0.4445 0,0.127 -0.1651,0.2286 -0.1524,0.1143 -0.2921,0.1143 -0.0762,0 -0.127,-0.0508 -0.0508,-0.0381 -0.0889,-0.1397 -0.0762,-0.1778 -0.1524,-0.6604 -0.0635,-0.4826 -0.1016,-1.0668 -0.0381,-0.5207 -0.0635,-1.2065 -0.0127,-0.6985 -0.0127,-1.3462 -0.7112,0.1143 -1.4605,0.2794 -0.6731,0.1397 -0.8001,0.1397 -0.1524,0 -0.2921,-0.0889 -0.127,-0.0889 -0.127,-0.2413 0,-0.1651 0.1143,-0.2159 0.1143,-0.0508 0.381,-0.0508 0.1905,0 0.5588,-0.0635 0.3683,-0.0762 0.4699,-0.1016 0.8509,-0.1651 1.1557,-0.2159 0,-0.2667 -0.0254,-0.6985 -0.0254,-0.5842 -0.0254,-0.889 0,-0.4953 0.0254,-0.762 0.0381,-0.2794 0.127,-0.4953 0.1016,-0.254 0.381,-0.254 0.1143,0 0.1524,0.0381 0.0381,0.0381 0.0381,0.1397 0,0.0762 -0.0635,0.4445 -0.0635,0.3683 -0.0635,0.9779 0,0.4699 0.0254,1.0541 l 0.0127,0.3429 q 0.5715,-0.0889 2.2606,-0.4699 0.1016,-0.0254 0.1651,-0.1778 0.0762,-0.1524 0.1524,-0.1524 0.1397,0 0.2794,0.1651 0.1524,0.1524 0.1524,0.3175 z"
         style="font-style:normal;font-variant:normal;font-weight:normal;font-stretch:normal;font-size:12.69999981px;font-family:'Ink Free';-inkscape-font-specification:'Ink Free, Normal';font-variant-ligatures:normal;font-variant-caps:normal;font-variant-numeric:normal;font-feature-settings:normal;text-align:start;writing-mode:lr-tb;text-anchor:start;fill:#28b028;fill-opacity:1"
         id="path4954"
         inkscape:connector-curvature="0" />
      <path
         d="m 96.67722,291.39277 q 0,0.4953 -0.3683,1.143 -0.3683,0.6477 -1.0414,1.1176 -0.6731,0.4572 -1.5367,0.4572 -0.8509,0 -1.2573,-0.4699 -0.4064,-0.4699 -0.4064,-1.1684 0,-0.6096 0.2159,-1.5113 0.2286,-0.9017 0.635,-1.6129 0.0254,-0.0508 0.2032,-0.3683 0.1905,-0.3302 0.4191,-0.4953 0.2286,-0.1778 0.4826,-0.1778 0.1143,0 0.2032,0.0635 0.1016,0.0508 0.1016,0.1397 0,0.0254 -0.0762,0.127 -0.0635,0.0889 -0.1016,0.1397 -0.4318,0.5207 -0.6985,1.0287 -0.3556,0.6477 -0.5588,1.2827 -0.1905,0.635 -0.1905,1.3843 0,1.0033 1.2192,1.0033 0.5715,0 1.0541,-0.3302 0.4953,-0.3302 0.7874,-0.8001 0.2921,-0.4826 0.2921,-0.8763 0,-0.4445 -0.2921,-0.7747 -0.2921,-0.3302 -0.8001,-0.6985 -0.3302,-0.2413 -0.4826,-0.3937 -0.1524,-0.1524 -0.1524,-0.254 0,-0.1524 0.2159,-0.2413 0.2159,-0.1016 0.508,-0.1016 0.1651,0 0.2159,0.0254 0.0508,0.0127 0.0508,0.0635 0,0.0254 -0.0508,0.0889 -0.0381,0.0508 -0.0381,0.0889 0,0.0381 0.254,0.254 0.508,0.4191 0.8509,0.8509 0.3429,0.4318 0.3429,1.016 z"
         style="font-style:normal;font-variant:normal;font-weight:normal;font-stretch:normal;font-size:12.69999981px;font-family:'Ink Free';-inkscape-font-specification:'Ink Free, Normal';font-variant-ligatures:normal;font-variant-caps:normal;font-variant-numeric:normal;font-feature-settings:normal;text-align:start;writing-mode:lr-tb;text-anchor:start;fill:#ffcc00"
         id="path4956"
         inkscape:connector-curvature="0" />
      <path
         d="m 105.71625,293.89467 q 0,0.1524 -0.1016,0.254 -0.1016,0.1143 -0.2667,0.1143 -0.2286,0 -0.2286,-0.2286 0,-2.5654 -0.1651,-3.9243 -0.1651,-1.3716 -0.5715,-1.3716 -0.6858,0 -2.0066,4.7879 v 0.0127 q 0,0.1524 -0.1016,0.2667 -0.1016,0.1016 -0.2667,0.1016 -0.2286,0 -0.2286,-0.2286 0,-0.508 0.0508,-1.5748 0.0508,-1.1938 0.0508,-1.8796 0,-0.9525 -0.0635,-1.3462 -0.0508,-0.4064 -0.2413,-0.4064 -0.4318,0 -1.0922,1.5875 -0.660402,1.5748 -1.384302,3.7211 l -0.1143,0.3302 q -0.0508,0.127 -0.1524,0.2159 -0.0889,0.0889 -0.2032,0.0889 -0.1524,0 -0.2032,-0.0254 -0.0508,-0.0254 -0.0635,-0.1524 -0.0635,-0.6223 -0.1016,-1.6637 -0.0254,-0.2667 -0.0508,-0.8763 -0.127,-2.1463 -0.2286,-2.8956 -0.1016,-0.762 -0.1016,-0.8509 0,-0.1016 0.1016,-0.2413 0.1016,-0.1397 0.1905,-0.1397 0.2032,0 0.3302,0.2921 0.0635,0.1397 0.1397,1.1176 0.0762,0.9779 0.127,2.4257 l 0.0635,1.9431 q 0.6985,-2.159 1.447802,-3.9116 0.7493,-1.7653 1.3716,-1.7653 0.4191,0 0.5715,0.6096 0.1524,0.6096 0.1524,1.7653 0,0.6096 -0.0254,1.7526 l -0.0127,0.5842 q 0.5207,-1.8161 1.0287,-3.048 0.5207,-1.2319 1.0414,-1.2319 1.3081,0 1.3081,5.7912 z"
         style="font-style:normal;font-variant:normal;font-weight:normal;font-stretch:normal;font-size:12.69999981px;font-family:'Ink Free';-inkscape-font-specification:'Ink Free, Normal';font-variant-ligatures:normal;font-variant-caps:normal;font-variant-numeric:normal;font-feature-settings:normal;text-align:start;writing-mode:lr-tb;text-anchor:start;fill:#666666"
         id="path4958"
         inkscape:connector-curvature="0" />
      <path
         d="m 112.46054,293.20887 q 0.0127,0.0889 0.1016,0.1905 0.0889,0.0889 0.0889,0.1524 0,0.1524 -0.127,0.3556 -0.127,0.1905 -0.254,0.1905 -0.2159,0 -0.3302,-0.2667 -0.1143,-0.2667 -0.1143,-0.6223 0,-0.3048 0.0381,-1.8288 l 0.0127,-0.4826 q 0,-0.2921 -0.1524,-0.4191 -0.5715,0.9652 -1.0668,1.6764 -0.4953,0.7112 -1.2573,1.3462 -0.762,0.6223 -1.6002,0.6223 -0.4064,0 -0.635,-0.254 -0.2159,-0.254 -0.2159,-0.6604 0,-0.508 0.4572,-1.3843 0.4572,-0.889 1.1684,-1.7907 0.7112,-0.9144 1.4224,-1.4986 0.4699,-0.381 0.7493,-0.508 0.2794,-0.1397 0.4953,-0.1397 0.2032,0 0.4191,0.127 0.2159,0.127 0.3683,0.3556 0.1524,0.2286 0.1524,0.5207 0,0.3937 -0.2159,0.7493 l 0.2159,-0.0635 q 0.1397,0 0.1651,0.3429 0.0127,0.2032 0.0254,0.8255 0.0254,0.6223 0.0381,1.0287 0.0127,0.4191 0.0254,0.8128 0.0127,0.3937 0.0254,0.6223 z m -4.4831,0.2286 q 0.6858,0 1.3208,-0.508 0.635,-0.508 1.1303,-1.2065 0.508,-0.7112 1.1176,-1.7399 0.1524,-0.381 0.1524,-0.8255 0,-0.2667 -0.1651,-0.4572 -0.1524,-0.2032 -0.4191,-0.2032 -0.3175,0 -0.8128,0.4318 -0.5715,0.4826 -1.2065,1.2954 -0.635,0.8001 -1.0541,1.5875 -0.4191,0.7874 -0.4191,1.2446 0,0.381 0.3556,0.381 z"
         style="font-style:normal;font-variant:normal;font-weight:normal;font-stretch:normal;font-size:12.69999981px;font-family:'Ink Free';-inkscape-font-specification:'Ink Free, Normal';font-variant-ligatures:normal;font-variant-caps:normal;font-variant-numeric:normal;font-feature-settings:normal;text-align:start;writing-mode:lr-tb;text-anchor:start;fill:#666666"
         id="path4960"
         inkscape:connector-curvature="0" />
      <path
         d="m 119.55091,288.76387 q 0,0.2159 -0.1905,0.3302 -0.1778,0.1143 -0.6604,0.1778 -1.1684,0.2032 -1.3081,0.2286 l -0.8255,0.1397 q 0,0.6604 0.0127,1.3843 0.0254,0.7239 0.0635,1.27 0.0508,0.7366 0.1778,1.1303 0.127,0.3937 0.1397,0.4445 0,0.127 -0.1651,0.2286 -0.1524,0.1143 -0.2921,0.1143 -0.0762,0 -0.127,-0.0508 -0.0508,-0.0381 -0.0889,-0.1397 -0.0762,-0.1778 -0.1524,-0.6604 -0.0635,-0.4826 -0.1016,-1.0668 -0.0381,-0.5207 -0.0635,-1.2065 -0.0127,-0.6985 -0.0127,-1.3462 -0.7112,0.1143 -1.4605,0.2794 -0.6731,0.1397 -0.8001,0.1397 -0.1524,0 -0.2921,-0.0889 -0.127,-0.0889 -0.127,-0.2413 0,-0.1651 0.1143,-0.2159 0.1143,-0.0508 0.381,-0.0508 0.1905,0 0.5588,-0.0635 0.3683,-0.0762 0.4699,-0.1016 0.8509,-0.1651 1.1557,-0.2159 0,-0.2667 -0.0254,-0.6985 -0.0254,-0.5842 -0.0254,-0.889 0,-0.4953 0.0254,-0.762 0.0381,-0.2794 0.127,-0.4953 0.1016,-0.254 0.381,-0.254 0.1143,0 0.1524,0.0381 0.0381,0.0381 0.0381,0.1397 0,0.0762 -0.0635,0.4445 -0.0635,0.3683 -0.0635,0.9779 0,0.4699 0.0254,1.0541 l 0.0127,0.3429 q 0.5715,-0.0889 2.2606,-0.4699 0.1016,-0.0254 0.1651,-0.1778 0.0762,-0.1524 0.1524,-0.1524 0.1397,0 0.2794,0.1651 0.1524,0.1524 0.1524,0.3175 z"
         style="font-style:normal;font-variant:normal;font-weight:normal;font-stretch:normal;font-size:12.69999981px;font-family:'Ink Free';-inkscape-font-specification:'Ink Free, Normal';font-variant-ligatures:normal;font-variant-caps:normal;font-variant-numeric:normal;font-feature-settings:normal;text-align:start;writing-mode:lr-tb;text-anchor:start;fill:#666666"
         id="path4962"
         inkscape:connector-curvature="0" />
      <path
         d="m 125.001,290.78317 q 0.0889,0 0.0889,0.1905 0,0.2286 -0.3429,1.0033 -0.3302,0.7747 -1.016,1.4351 -0.6731,0.6604 -1.6637,0.6604 -0.8128,0 -1.3589,-0.508 -0.5461,-0.508 -0.5461,-1.5621 0,-0.9906 0.4572,-1.9558 0.4572,-0.9779 1.1938,-1.5875 0.7366,-0.6223 1.524,-0.6223 0.4699,0 0.7874,0.2159 0.3302,0.2032 0.3302,0.5969 0,0.4445 -0.508,0.8636 -0.4953,0.4191 -1.2954,0.7366 -0.8001,0.3175 -1.651,0.4572 -0.1524,0.5842 -0.1524,1.143 0,0.7366 0.3429,1.143 0.3556,0.4064 1.0033,0.4064 0.9779,0 1.5875,-0.6985 0.6096,-0.6985 1.016,-1.5748 0.0254,-0.0508 0.0889,-0.1905 0.0635,-0.1524 0.1143,-0.1524 z m -1.1176,-1.9939 q 0,-0.2032 -0.2159,-0.3175 -0.2032,-0.1143 -0.4826,-0.1143 -0.4826,0 -0.9271,0.3175 -0.4445,0.3175 -0.7493,0.762 -0.2921,0.4445 -0.381,0.7874 0.5842,-0.0635 1.2319,-0.3302 0.6477,-0.2667 1.0795,-0.5842 0.4445,-0.3175 0.4445,-0.5207 z"
         style="font-style:normal;font-variant:normal;font-weight:normal;font-stretch:normal;font-size:12.69999981px;font-family:'Ink Free';-inkscape-font-specification:'Ink Free, Normal';font-variant-ligatures:normal;font-variant-caps:normal;font-variant-numeric:normal;font-feature-settings:normal;text-align:start;writing-mode:lr-tb;text-anchor:start;fill:#666666"
         id="path4964"
         inkscape:connector-curvature="0" />
      <path
         d="m 130.65051,285.33487 q 0,0.254 -0.0254,1.0033 -0.0254,0.7366 -0.0254,1.4859 0,1.4478 0.0635,2.9591 0.0635,1.4986 0.1016,1.9685 0,0.0762 0.0127,0.1651 0.0127,0.0889 0.0254,0.1651 0.0508,0.3556 0.0508,0.4318 0,0.127 -0.1905,0.2413 -0.1778,0.1143 -0.2794,0.1143 -0.1397,0 -0.1905,-0.1016 -0.0381,-0.1143 -0.0381,-0.3048 0,-0.6985 0.0381,-1.4605 l 0.0127,-0.7112 q 0,-0.3556 -0.0127,-0.9271 -0.0127,-0.5842 -0.0381,-0.9779 -0.6477,2.0828 -1.4732,3.4544 -0.8128,1.3589 -1.7653,1.3589 -0.4318,0 -0.7366,-0.4064 -0.2921,-0.4064 -0.2921,-1.1684 0,-1.0033 0.6731,-2.1844 0.6858,-1.1811 1.5494,-2.032 0.8763,-0.8509 1.2954,-0.8509 0.4064,0 0.4064,0.2667 0,0.1778 -0.127,0.4191 -0.1143,0.2286 -0.2667,0.4191 -0.1397,0.1905 -0.1651,0.1905 -0.0254,0 -0.0635,-0.0127 -0.0254,-0.0254 -0.0254,-0.0508 0,-0.0635 0.0635,-0.2159 0.0635,-0.1524 0.0635,-0.2032 0,-0.0635 -0.0127,-0.0889 -0.0127,-0.0254 -0.0762,-0.0254 -0.2667,0 -0.9652,0.7366 -0.6858,0.7239 -1.2319,1.7272 -0.5461,1.0033 -0.5461,1.8669 0,0.3048 0.127,0.5715 0.127,0.2667 0.4191,0.2667 0.9271,0 1.7145,-1.5621 0.8001,-1.5748 1.3843,-3.5687 l -0.0254,-1.0668 q -0.0381,-1.4097 -0.0381,-1.4986 0,-0.762 0.0635,-1.0922 0.0254,-0.127 0.0508,-0.1778 0.0381,-0.0508 0.1397,-0.0508 0.127,0 0.254,0.0889 0.127,0.0762 0.127,0.2159 z"
         style="font-style:normal;font-variant:normal;font-weight:normal;font-stretch:normal;font-size:12.69999981px;font-family:'Ink Free';-inkscape-font-specification:'Ink Free, Normal';font-variant-ligatures:normal;font-variant-caps:normal;font-variant-numeric:normal;font-feature-settings:normal;text-align:start;writing-mode:lr-tb;text-anchor:start;fill:#666666"
         id="path4966"
         inkscape:connector-curvature="0" />
    </g>
    <path
       style="opacity:0.981;fill:#4d4d4d;fill-opacity:0.98431373;stroke:none;stroke-width:0.06934693;stroke-miterlimit:4;stroke-dasharray:none;stroke-dashoffset:0;stroke-opacity:1"
       d="m 66.265991,282.61615 h 0.371887 v 13.72956 h -0.371887 z"
       id="rect4793"
       inkscape:connector-curvature="0" />
    <path
       style="opacity:0.981;fill:#4d4d4d;fill-opacity:0.98431373;stroke:none;stroke-width:0.06934693;stroke-miterlimit:4;stroke-dasharray:none;stroke-dashoffset:0;stroke-opacity:1"
       d="m 68.723778,282.61615 h 0.371886 v 13.72956 h -0.371886 z"
       id="rect4793-4"
       inkscape:connector-curvature="0" />
  </g>
</svg>
